# Blender 3.6.4
# www.blender.org
mtllib stairs_rightCorner.mtl
o Stairs_NZ_Cube.013
v 1.000000 0.000000 1.000000
v 0.000000 0.000000 1.000000
v 1.000000 0.000000 0.000000
v 0.000000 0.000000 0.000000
v 1.000000 0.500000 1.000000
v 0.000000 0.500000 1.000000
v 0.500000 1.000000 0.000000
v 0.500000 0.500000 -0.000000
v 0.500000 0.500000 0.500000
v 0.500000 1.000000 0.500000
v 0.000000 0.500000 -0.000000
v 1.000000 1.000000 0.000000
v 1.000000 0.500000 0.500000
v 1.000000 1.000000 0.500000
vn -0.0000 -1.0000 -0.0000
vn -0.0000 -0.0000 1.0000
vn -1.0000 -0.0000 -0.0000
vn -0.0000 1.0000 -0.0000
vn -0.0000 -0.0000 -1.0000
vn 0.8320 -0.0000 0.5547
vn 1.0000 -0.0000 -0.0000
vt 0.250000 0.875000
vt 0.312500 0.875000
vt 0.312500 0.937500
vt 0.250000 0.937500
vt 0.250000 0.906250
vt 0.187500 0.906250
vt 0.187500 0.875000
vt 0.250000 0.875000
vt 0.312500 0.875000
vt 0.312500 0.906250
vt 0.250000 0.906250
vt 0.281250 0.906250
vt 0.281250 0.937500
vt 0.250000 0.937500
vt 0.250000 0.906250
vt 0.281250 0.906250
vt 0.250000 0.937500
vt 0.250000 0.875000
vt 0.250000 0.906250
vt 0.281250 0.906250
vt 0.281250 0.937500
vt 0.250000 0.937500
vt 0.281250 0.906250
vt 0.312500 0.906250
vt 0.281250 0.937500
vt 0.250000 0.906083
vt 0.250000 0.875000
vt 0.281154 0.906083
vt 0.312500 0.937500
vt 0.281154 0.937500
vt 0.312500 0.875000
vt 0.312500 0.906250
vt 0.281250 0.937500
vt 0.281250 0.937500
s 0
usemtl æè´¨
f 3/1/1 1/2/1 2/3/1 4/4/1
f 1/1/2 5/5/2 6/6/2 2/7/2
f 6/8/3 11/9/3 4/10/3 2/11/3
f 9/12/4 11/1/4 6/2/4
f 14/13/4 12/14/4 7/15/4 10/16/4
f 8/12/5 12/17/5 3/18/5
f 10/19/3 7/20/3 8/21/3 9/22/3
f 9/23/6 13/24/6 14/3/6 10/25/6
f 5/26/7 1/27/7 13/28/7
f 1/27/7 3/9/7 13/28/7
f 3/9/7 12/29/7 13/28/7
f 12/29/7 14/30/7 13/28/7
f 3/18/5 4/31/5 8/12/5
f 4/31/5 11/32/5 8/12/5
f 8/12/5 7/33/5 12/17/5
f 6/2/4 5/3/4 9/12/4
f 5/3/4 13/34/4 9/12/4
f 9/12/4 8/5/4 11/1/4
